HIERARCHY
ROOT Hips
{
	OFFSET 0.000000 97.167313 0.000000
	CHANNELS 6 Xposition Yposition Zposition Xrotation Yrotation Zrotation
	JOINT Spine
	{
		OFFSET 0.000000 13.784798 0.064400
		CHANNELS 3 Xrotation Yrotation Zrotation
		JOINT Spine1
		{
			OFFSET 0.000000 12.037903 0.404700
			CHANNELS 3 Xrotation Yrotation Zrotation
			JOINT Spine2
			{
				OFFSET 0.000000 17.795601 0.420200
				CHANNELS 3 Xrotation Yrotation Zrotation
				JOINT Neck
				{
					OFFSET 0.000000 39.131302 11.954600
					CHANNELS 3 Xrotation Yrotation Zrotation
					JOINT Head
					{
						OFFSET 0.000000 14.456192 15.627699
						CHANNELS 3 Xrotation Yrotation Zrotation
						JOINT HeadTop_End
						{
							OFFSET 0.000000 15.703506 7.603401
							CHANNELS 3 Xrotation Yrotation Zrotation
							End Site
							{
								OFFSET 0.000000 17.447403 0.000000
							}
						}
					}
				}
				JOINT LeftShoulder
				{
					OFFSET 17.399500 24.608795 1.168800
					CHANNELS 3 Xrotation Yrotation Zrotation
					JOINT LeftArm
					{
						OFFSET 18.980635 5.765305 1.818600
						CHANNELS 3 Xrotation Yrotation Zrotation
						JOINT LeftForeArm
						{
							OFFSET 49.290169 0.000000 0.000000
							CHANNELS 3 Xrotation Yrotation Zrotation
							JOINT LeftHand
							{
								OFFSET 31.562012 0.000000 0.000000
								CHANNELS 3 Xrotation Yrotation Zrotation
								JOINT LeftHandThumb1
								{
									OFFSET 6.133995 -4.388519 7.076070
									CHANNELS 3 Xrotation Yrotation Zrotation
									JOINT LeftHandThumb2
									{
										OFFSET 6.037666 -3.485840 3.485847
										CHANNELS 3 Xrotation Yrotation Zrotation
										JOINT LeftHandThumb3
										{
											OFFSET 6.496506 -3.750763 3.750761
											CHANNELS 3 Xrotation Yrotation Zrotation
											JOINT LeftHandThumb4
											{
												OFFSET 5.616882 -3.242905 3.242910
												CHANNELS 3 Xrotation Yrotation Zrotation
												End Site
												{
													OFFSET -1.254608 7.132141 0.375429
												}
											}
										}
									}
								}
								JOINT LeftHandPinky1
								{
									OFFSET 18.920792 -0.453171 -11.426712
									CHANNELS 3 Xrotation Yrotation Zrotation
									JOINT LeftHandPinky2
									{
										OFFSET 4.919586 0.000000 0.000000
										CHANNELS 3 Xrotation Yrotation Zrotation
										JOINT LeftHandPinky3
										{
											OFFSET 5.233047 0.000000 0.000000
											CHANNELS 3 Xrotation Yrotation Zrotation
											JOINT LeftHandPinky4
											{
												OFFSET 5.571716 0.000000 0.000000
												CHANNELS 3 Xrotation Yrotation Zrotation
												End Site
												{
													OFFSET -3.459808 4.342407 -0.466164
												}
											}
										}
									}
								}
								JOINT LeftHandRing1
								{
									OFFSET 22.726120 -0.094986 -6.500475
									CHANNELS 3 Xrotation Yrotation Zrotation
									JOINT LeftHandRing2
									{
										OFFSET 6.408615 0.000000 0.000000
										CHANNELS 3 Xrotation Yrotation Zrotation
										JOINT LeftHandRing3
										{
											OFFSET 6.150223 0.000000 0.000000
											CHANNELS 3 Xrotation Yrotation Zrotation
											JOINT LeftHandRing4
											{
												OFFSET 6.145386 0.000000 0.000000
												CHANNELS 3 Xrotation Yrotation Zrotation
												End Site
												{
													OFFSET -3.671402 4.923981 -0.202372
												}
											}
										}
									}
								}
								JOINT LeftHandMiddle1
								{
									OFFSET 23.373947 0.000000 0.000001
									CHANNELS 3 Xrotation Yrotation Zrotation
									JOINT LeftHandMiddle2
									{
										OFFSET 6.996567 0.000000 0.000000
										CHANNELS 3 Xrotation Yrotation Zrotation
										JOINT LeftHandMiddle3
										{
											OFFSET 7.015945 0.000000 0.000000
											CHANNELS 3 Xrotation Yrotation Zrotation
											JOINT LeftHandMiddle4
											{
												OFFSET 7.721573 0.000000 0.000000
												CHANNELS 3 Xrotation Yrotation Zrotation
												End Site
												{
													OFFSET -4.651108 6.158463 0.251582
												}
											}
										}
									}
								}
								JOINT LeftHandIndex1
								{
									OFFSET 21.310577 -0.490082 6.209344
									CHANNELS 3 Xrotation Yrotation Zrotation
									JOINT LeftHandIndex2
									{
										OFFSET 7.536453 0.000000 0.000000
										CHANNELS 3 Xrotation Yrotation Zrotation
										JOINT LeftHandIndex3
										{
											OFFSET 7.512344 0.000000 0.000000
											CHANNELS 3 Xrotation Yrotation Zrotation
											JOINT LeftHandIndex4
											{
												OFFSET 10.212402 0.000000 0.000001
												CHANNELS 3 Xrotation Yrotation Zrotation
												End Site
												{
													OFFSET -5.180801 8.690506 1.388433
												}
											}
										}
									}
								}
							}
						}
					}
				}
				JOINT RightShoulder
				{
					OFFSET -17.399500 24.608795 1.168800
					CHANNELS 3 Xrotation Yrotation Zrotation
					JOINT RightArm
					{
						OFFSET -18.980635 5.765305 1.818600
						CHANNELS 3 Xrotation Yrotation Zrotation
						JOINT RightForeArm
						{
							OFFSET -49.290169 0.000000 0.000000
							CHANNELS 3 Xrotation Yrotation Zrotation
							JOINT RightHand
							{
								OFFSET -31.562012 0.000000 0.000000
								CHANNELS 3 Xrotation Yrotation Zrotation
								JOINT RightHandThumb1
								{
									OFFSET -6.133995 -4.388519 7.076070
									CHANNELS 3 Xrotation Yrotation Zrotation
									JOINT RightHandThumb2
									{
										OFFSET -6.037666 -3.485840 3.485847
										CHANNELS 3 Xrotation Yrotation Zrotation
										JOINT RightHandThumb3
										{
											OFFSET -6.496506 -3.750763 3.750761
											CHANNELS 3 Xrotation Yrotation Zrotation
											JOINT RightHandThumb4
											{
												OFFSET -5.616882 -3.242905 3.242910
												CHANNELS 3 Xrotation Yrotation Zrotation
												End Site
												{
													OFFSET 1.254608 7.132141 0.375429
												}
											}
										}
									}
								}
								JOINT RightHandIndex1
								{
									OFFSET -21.310577 -0.490082 6.209344
									CHANNELS 3 Xrotation Yrotation Zrotation
									JOINT RightHandIndex2
									{
										OFFSET -7.536453 0.000000 0.000000
										CHANNELS 3 Xrotation Yrotation Zrotation
										JOINT RightHandIndex3
										{
											OFFSET -7.512344 0.000000 0.000000
											CHANNELS 3 Xrotation Yrotation Zrotation
											JOINT RightHandIndex4
											{
												OFFSET -10.212402 0.000000 0.000001
												CHANNELS 3 Xrotation Yrotation Zrotation
												End Site
												{
													OFFSET 5.180801 8.690506 1.388433
												}
											}
										}
									}
								}
								JOINT RightHandMiddle1
								{
									OFFSET -23.373947 0.000000 0.000001
									CHANNELS 3 Xrotation Yrotation Zrotation
									JOINT RightHandMiddle2
									{
										OFFSET -6.996567 0.000000 0.000000
										CHANNELS 3 Xrotation Yrotation Zrotation
										JOINT RightHandMiddle3
										{
											OFFSET -7.015945 0.000000 0.000000
											CHANNELS 3 Xrotation Yrotation Zrotation
											JOINT RightHandMiddle4
											{
												OFFSET -7.721573 0.000000 0.000000
												CHANNELS 3 Xrotation Yrotation Zrotation
												End Site
												{
													OFFSET 4.651108 6.158463 0.251582
												}
											}
										}
									}
								}
								JOINT RightHandRing1
								{
									OFFSET -22.726120 -0.094986 -6.500475
									CHANNELS 3 Xrotation Yrotation Zrotation
									JOINT RightHandRing2
									{
										OFFSET -6.408615 0.000000 0.000000
										CHANNELS 3 Xrotation Yrotation Zrotation
										JOINT RightHandRing3
										{
											OFFSET -6.150223 0.000000 0.000000
											CHANNELS 3 Xrotation Yrotation Zrotation
											JOINT RightHandRing4
											{
												OFFSET -6.145386 0.000000 0.000000
												CHANNELS 3 Xrotation Yrotation Zrotation
												End Site
												{
													OFFSET 3.671402 4.923981 -0.202372
												}
											}
										}
									}
								}
								JOINT RightHandPinky1
								{
									OFFSET -18.920792 -0.453171 -11.426712
									CHANNELS 3 Xrotation Yrotation Zrotation
									JOINT RightHandPinky2
									{
										OFFSET -4.919586 0.000000 0.000000
										CHANNELS 3 Xrotation Yrotation Zrotation
										JOINT RightHandPinky3
										{
											OFFSET -5.233047 0.000000 0.000000
											CHANNELS 3 Xrotation Yrotation Zrotation
											JOINT RightHandPinky4
											{
												OFFSET -5.571716 0.000000 0.000000
												CHANNELS 3 Xrotation Yrotation Zrotation
												End Site
												{
													OFFSET 3.459808 4.342407 -0.466164
												}
											}
										}
									}
								}
							}
						}
					}
				}
			}
		}
	}
	JOINT LeftUpLeg
	{
		OFFSET 19.899099 -7.885101 -3.429500
		CHANNELS 3 Xrotation Yrotation Zrotation
		JOINT LeftLeg
		{
			OFFSET 1.745560 -36.997807 10.304700
			CHANNELS 3 Xrotation Yrotation Zrotation
			JOINT LeftFoot
			{
				OFFSET -1.745558 -29.803308 -13.615400
				CHANNELS 3 Xrotation Yrotation Zrotation
				JOINT LeftToeBase
				{
					OFFSET 1.181900 -18.539904 15.226099
					CHANNELS 3 Xrotation Yrotation Zrotation
					JOINT LeftToe_End
					{
						OFFSET -0.863701 1.402801 16.534700
						CHANNELS 3 Xrotation Yrotation Zrotation
						End Site
						{
							OFFSET 0.000000 16.616566 0.000000
						}
					}
				}
			}
		}
	}
	JOINT RightUpLeg
	{
		OFFSET -19.899099 -7.885101 -3.429500
		CHANNELS 3 Xrotation Yrotation Zrotation
		JOINT RightLeg
		{
			OFFSET -1.745560 -36.997807 10.304700
			CHANNELS 3 Xrotation Yrotation Zrotation
			JOINT RightFoot
			{
				OFFSET 1.745558 -29.803308 -13.615400
				CHANNELS 3 Xrotation Yrotation Zrotation
				JOINT RightToeBase
				{
					OFFSET -1.181900 -18.539904 15.226099
					CHANNELS 3 Xrotation Yrotation Zrotation
					JOINT RightToe_End
					{
						OFFSET 0.863701 1.402801 16.534700
						CHANNELS 3 Xrotation Yrotation Zrotation
						End Site
						{
							OFFSET 0.000000 16.616566 0.000000
						}
					}
				}
			}
		}
	}
}
MOTION
Frames: 5
Frame Time: 0.033333
-0.003334 93.014809 3.226850 3.816330 -3.714016 -0.354606 0.168841 0.328826 0.166526 0.511352 0.549321 -0.149397 0.508109 0.553238 -0.154869 -12.568410 -1.447528 2.637434 10.197548 3.163033 -2.584844 -0.000000 0.000000 0.000000 1.593944 -11.382988 -9.553899 4.416739 -15.622917 -64.401307 -0.000006 -13.025305 0.000003 1.688452 -1.860467 -8.446769 0.706157 -6.028810 19.241452 19.075030 26.512571 -1.021874 3.262401 -0.978086 3.963114 0.000001 -0.000000 -0.000002 3.599421 12.765528 -45.580444 0.673761 2.729607 -27.726096 0.090006 1.024034 -10.045309 -0.000000 -0.000000 -0.000001 3.090092 8.505115 -34.940724 1.098166 3.416352 -35.629914 0.533265 2.444004 -24.613755 -0.000001 -0.000002 0.000003 2.482962 8.724941 -25.419847 1.496293 3.911581 -41.854071 0.476284 2.315681 -23.241539 0.000001 -0.000002 0.000004 0.460239 4.491402 -23.662338 0.883064 3.094832 -31.843991 0.339540 1.967252 -19.583689 -0.000005 0.000003 0.000001 2.098173 14.858882 10.814058 -4.569011 3.427236 66.321219 0.000000 7.418306 0.000013 10.825547 0.113567 8.050652 -13.481431 -11.534462 -5.350756 13.650624 -20.583318 -6.824859 3.162466 -4.141721 -22.215028 -0.000001 0.000002 0.000003 0.246058 -3.262782 18.902268 0.589426 -2.269655 29.112650 0.172063 -1.255513 15.606880 0.000001 -0.000004 -0.000000 -0.702530 -1.215702 21.258714 0.924295 -2.786714 36.692907 0.558019 -2.212367 28.309418 0.000000 0.000004 -0.000003 -0.941542 -2.664830 38.529244 0.358961 -1.794601 22.620041 0.313734 -1.682017 21.129375 0.000002 -0.000002 -0.000005 -2.260389 -1.124637 39.408132 0.612401 -2.310396 29.687595 0.130097 -1.094185 13.559639 0.000000 -0.000000 0.000006 -8.391422 12.061234 13.854100 11.404592 3.013522 1.229781 -5.642823 2.739880 -13.316413 0.000436 0.000003 -0.000929 -0.000000 0.000001 0.000000 -11.631751 -7.863917 -11.527627 9.740179 2.737269 -2.253433 -1.867852 -1.891847 13.109130 -0.000015 0.000003 -0.000006 0.000000 0.000000 0.000000 
-0.056866 92.858719 3.131892 3.815322 -3.615563 -0.402640 0.223085 0.329193 0.138907 0.619381 0.549144 -0.171252 0.616170 0.550360 -0.177331 -12.458675 -1.489275 2.696812 10.308790 3.090505 -2.491489 0.000000 0.000000 -0.000000 1.620408 -11.427188 -9.437557 4.224443 -15.778929 -64.456256 0.000006 -13.095305 0.000011 1.608007 -1.899876 -8.294619 0.706397 -6.028750 19.241488 19.069219 26.494323 -1.013857 3.261147 -0.985921 3.972018 -0.000001 -0.000002 -0.000002 3.600098 12.766696 -45.560869 0.673010 2.728188 -27.710313 0.089865 1.023214 -10.037152 0.000001 0.000001 -0.000004 3.084647 8.500572 -34.909910 1.095320 3.412415 -35.582325 0.532805 2.442971 -24.602881 0.000001 -0.000002 -0.000000 2.480297 8.727613 -25.371738 1.497278 3.912673 -41.868476 0.476140 2.315359 -23.238119 0.000001 -0.000002 0.000004 0.454914 4.478454 -23.608993 0.882504 3.093918 -31.833449 0.338210 1.963492 -19.544713 -0.000002 0.000001 -0.000001 2.101699 14.852431 10.812064 -4.682501 3.420926 66.308194 -0.000000 7.398582 0.000007 10.731814 0.145400 7.984559 -13.481958 -11.534565 -5.350524 13.677250 -20.716491 -6.780720 3.135466 -4.188171 -22.112797 0.000001 0.000000 0.000002 0.259123 -3.349769 19.700554 0.588903 -2.268730 29.099529 0.172476 -1.256969 15.625576 -0.000002 0.000003 0.000004 -0.745223 -1.165807 21.674214 0.925900 -2.788872 36.726023 0.558565 -2.213380 28.323748 0.000003 0.000002 -0.000004 -1.006641 -2.609293 38.815176 0.361022 -1.799550 22.685932 0.314149 -1.683087 21.143528 0.000001 0.000000 -0.000005 -2.321948 -1.086820 39.662786 0.614689 -2.314403 29.744190 0.129479 -1.091629 13.527523 -0.000001 -0.000002 -0.000001 -8.802656 11.897756 13.995876 12.024903 2.947263 1.308870 -5.856842 2.779064 -13.420093 -0.019081 0.000003 0.000001 -0.000000 0.000003 0.000000 -11.908814 -7.844175 -11.537041 10.332778 2.675165 -2.172260 -2.185291 -1.898665 13.022553 -0.001560 0.000003 0.000001 0.000000 -0.000000 -0.000000 
-0.079278 92.658676 2.992383 3.858308 -3.550186 -0.476859 0.298705 0.336305 0.116260 0.762332 0.562962 -0.184806 0.759135 0.564213 -0.191152 -12.355091 -1.534648 2.759705 10.319996 3.012233 -2.380603 0.000000 0.000000 0.000000 1.664251 -11.404920 -9.289016 4.065666 -15.943294 -64.469780 0.000003 -13.470305 0.000034 1.525816 -1.747175 -8.156842 0.704976 -6.033459 19.240499 19.069362 26.492542 -1.017594 3.266490 -0.964320 3.952141 0.000002 -0.000003 -0.000006 3.600494 12.754737 -45.669066 0.676754 2.735290 -27.788797 0.089880 1.023303 -10.038096 -0.000002 -0.000003 -0.000005 3.079617 8.485523 -34.987569 1.097528 3.415500 -35.619426 0.531785 2.440747 -24.579076 -0.000004 0.000002 0.000003 2.483318 8.718184 -25.464026 1.498387 3.913897 -41.884622 0.476348 2.315837 -23.243135 -0.000001 -0.000003 0.000008 0.454870 4.479377 -23.716261 0.883979 3.096290 -31.860770 0.336052 1.957394 -19.481622 -0.000002 0.000004 0.000007 2.122510 14.859678 10.760878 -4.583339 3.381889 66.283871 0.000002 8.030571 -0.000008 10.758157 -0.098363 7.958644 -13.481468 -11.534327 -5.350655 13.760398 -21.214504 -6.620104 3.065246 -4.310389 -21.836407 0.000002 -0.000001 -0.000001 0.307100 -3.606082 21.909560 0.590936 -2.272347 29.150578 0.172658 -1.257599 15.633584 0.000002 0.000002 -0.000001 -0.832703 -1.086168 22.614215 0.921769 -2.783331 36.640939 0.559903 -2.215857 28.358165 -0.000001 -0.000000 -0.000004 -1.075629 -2.593311 39.551870 0.365255 -1.809644 22.820475 0.314613 -1.684295 21.159419 -0.000001 -0.000001 -0.000005 -2.507400 -0.959574 40.301555 0.623848 -2.330360 29.970375 0.128329 -1.086843 13.466892 0.000003 -0.000004 0.000004 -9.363961 11.639873 14.149831 12.859572 2.968471 1.439338 -6.159840 2.837317 -13.557468 -0.033762 0.000003 0.000002 0.000000 0.000001 -0.000000 -12.309842 -7.771859 -11.527497 11.062915 2.600992 -2.117177 -2.633935 -1.923854 12.964467 -0.006056 0.000000 -0.000000 -0.000000 -0.000001 -0.000000 
-0.064674 92.399940 2.796223 3.963542 -3.510548 -0.568093 0.393860 0.355680 0.094737 0.936777 0.601555 -0.193443 0.933564 0.603476 -0.199795 -12.258780 -1.596443 2.839595 10.314324 2.893963 -2.248043 0.000000 0.000000 -0.000000 1.728136 -11.336270 -9.098489 3.923886 -16.137538 -64.454098 0.000004 -14.101837 -0.000010 1.479134 -1.470598 -8.036830 0.700314 -6.044465 19.240535 19.103923 26.594101 -1.071982 3.277978 -0.895626 3.888667 -0.000002 0.000001 -0.000002 3.554594 12.683670 -45.980144 0.685285 2.751401 -27.967067 0.091317 1.031415 -10.118420 0.000001 -0.000004 0.000000 3.065374 8.437229 -35.270134 1.107664 3.429567 -35.789115 0.530427 2.437803 -24.547220 -0.000001 -0.000002 0.000003 2.499619 8.683451 -25.871700 1.500504 3.916263 -41.915618 0.476689 2.316644 -23.251781 0.000003 -0.000001 0.000004 0.455325 4.485952 -24.167279 0.888813 3.104049 -31.950187 0.328217 1.935107 -19.250787 0.000001 0.000001 -0.000001 2.169488 14.818019 10.651805 -4.312604 3.386648 66.267793 0.000007 9.222092 -0.000008 10.884568 -0.510860 7.855317 -13.477509 -11.533002 -5.352221 13.977828 -22.395714 -6.219126 2.903777 -4.595922 -21.246019 -0.000001 0.000001 -0.000001 0.446126 -4.086451 26.117218 0.624055 -2.330706 29.975392 0.173440 -1.260401 15.669306 -0.000001 -0.000003 -0.000002 -0.983134 -1.024528 24.551520 0.913128 -2.771716 36.462856 0.564244 -2.223869 28.470276 -0.000000 0.000001 -0.000008 -1.210972 -2.583215 41.113596 0.375512 -1.833808 23.143056 0.314916 -1.685068 21.169507 -0.000002 0.000001 0.000000 -2.935813 -0.683195 41.694828 0.656291 -2.385668 30.758797 0.130268 -1.094920 13.568887 -0.000001 -0.000001 0.000004 -10.122482 11.285585 14.313379 13.943043 3.067591 1.599921 -6.557701 2.910722 -13.710425 -0.047949 0.000009 -0.000001 -0.000000 0.000000 0.000000 -12.908742 -7.643424 -11.549928 11.934710 2.572011 -2.050007 -3.050588 -1.990793 12.994694 -0.009016 0.000001 0.000000 0.000000 -0.000001 0.000000 
-0.002160 92.091637 2.539038 4.116424 -3.490102 -0.672179 0.510544 0.390686 0.078060 1.148162 0.671612 -0.194627 1.144907 0.674116 -0.200838 -12.154180 -1.686439 2.946343 10.380708 2.697901 -2.084611 0.000000 0.000000 -0.000000 1.808990 -11.268810 -8.874575 3.778308 -16.341040 -64.437726 0.000001 -14.902720 -0.000016 1.418345 -1.275923 -7.835517 0.692603 -6.061608 19.244268 19.179677 26.816007 -1.185851 3.294047 -0.774846 3.778466 0.000002 0.000002 -0.000002 3.440311 12.548301 -46.402826 0.694986 2.769568 -28.168453 0.094091 1.046810 -10.271175 0.000000 -0.000000 -0.000000 3.035615 8.354827 -35.697335 1.123080 3.450812 -36.046115 0.528819 2.434271 -24.509391 -0.000000 -0.000004 0.000001 2.522032 8.623505 -26.524297 1.503148 3.919181 -41.954283 0.477148 2.317710 -23.263259 0.000001 -0.000003 0.000008 0.448045 4.480252 -24.870425 0.895795 3.115195 -32.078878 0.314079 1.894184 -18.827712 -0.000002 0.000003 0.000002 2.247652 14.690134 10.464091 -3.990466 3.475249 66.291227 -0.000001 10.699060 -0.000007 11.003267 -0.836056 7.478686 -13.469074 -11.529460 -5.355194 14.404871 -24.378284 -5.495220 2.618454 -5.112410 -20.290083 0.000003 0.000004 0.000003 0.735033 -4.708146 32.016522 0.698540 -2.455215 31.759096 0.177028 -1.273144 15.831854 -0.000004 0.000000 0.000003 -1.187207 -1.048675 27.593865 0.913315 -2.771952 36.466605 0.575793 -2.245029 28.766534 0.000000 0.000004 -0.000004 -1.523015 -2.472864 43.424116 0.396816 -1.882840 23.799917 0.316315 -1.688691 21.217332 -0.000003 0.000002 -0.000005 -3.610345 -0.346556 44.007319 0.725682 -2.498485 32.387275 0.140268 -1.135532 14.082604 0.000001 -0.000005 -0.000000 -11.055641 10.867194 14.476692 15.233764 3.221790 1.763810 -7.025940 2.983460 -13.847575 -0.065280 -0.000015 0.000002 -0.000000 0.000001 0.000000 -13.705309 -7.490535 -11.588680 12.995057 2.550396 -1.976788 -3.529011 -2.040351 12.961477 -0.014831 -0.000003 0.000002 0.000000 0.000000 0.000000 
